# xmcd
#
# Track frame offsets: 
#        150
#        19947
#        36792
#        52255
#        72797
#        90762
#        104655
#        120297
#        134202
#        154077
#
# Disc length: 2335 seconds
#
# Revision: 0
# Processed by: cddbd v1.5.2PL0 Copyright (c) Steve Scherf et al.
# Submitted via: ExactAudioCopy v0.99pb5
#
DISCID=85091d0a
DTITLE=賈立怡 - [2008-12] 聽聽.愛
DYEAR=2008
DGENRE=pop
TTITLE0=唉呀呀
TTITLE1=聽聽
TTITLE2=旋轉門
TTITLE3=愛.存在
TTITLE4=Love Is Most Beautiful
TTITLE5=被子
TTITLE6=陪著你
TTITLE7=Rocket Man
TTITLE8=追思
TTITLE9=8808
EXTD=
EXTT0=
EXTT1=
EXTT2=
EXTT3=
EXTT4=
EXTT5=
EXTT6=
EXTT7=
EXTT8=
EXTT9=
PLAYORDER=
